<svg width="70" height="30" xmlns="http://www.w3.org/2000/svg">
 <!-- Created with Method Draw - http://github.com/duopixel/Method-Draw/ -->
 <g>
  <title>background</title>
  <rect fill="#fff" id="post-button" height="30" width="70" y="-1" x="-1"/>
  <g display="none" overflow="visible" y="0" x="0" height="100%" width="100%" id="canvasGrid">
   <rect fill="url(#gridpattern)" stroke-width="0" y="0" x="0" height="100%" width="100%"/>
  </g>
 </g>
 <g>
  <title>Layer 1</title>
  <path stroke="#000" id="svg_1" d="m68.144425,191.445748l11.175022,-13.254911l30.613794,36.2941l51.032207,-60.490166l11.178973,13.245543l-62.21118,73.754444" stroke-width="1.5" fill="#fff"/>
  <text stroke="#000" transform="matrix(4.30081763412818,0,0,3.9629628658294687,-737.3589022249489,-450.8981338255108) " xml:space="preserve" text-anchor="start" font-family="'Trebuchet MS', Gadget, sans-serif" font-size="24" id="svg_2" y="169.453125" x="220" stroke-width="0" fill="#000000">发表！</text>
  <path id="svg_3" d="m4.887895,13.851404l2.623241,-2.817171l7.186327,7.713872l11.979376,-12.856454l2.624169,2.81518l-14.603545,15.675615" stroke-width="1.5" stroke="#000" fill="#fff"/>
  <line stroke="#000" stroke-linecap="null" stroke-linejoin="null" id="svg_4" y2="24.768741" x2="15.29184" y1="13.384729" x1="4.368452" stroke-width="1.5" fill="none"/>
  <text stroke="#000" transform="matrix(1.204325250133138,0,0,1.4767770561806974,-6.931448837461707,-5.187369624638673) " xml:space="preserve" text-anchor="start" font-family="'Trebuchet MS', Gadget, sans-serif" font-size="12" id="svg_5" y="17.595315" x="32.392475" fill-opacity="null" stroke-opacity="null" stroke-width="0" fill="#000000">发表！</text>
 </g>
</svg>











<svg>
    <title></title>
    <defs>
        <style>
          :hover { fill: #06c; }
        </style>
    </defs>
    <path id="svg_3" d="m4.887895,13.851404l2.623241,-2.817171l7.186327,7.713872l11.979376,-12.856454l2.624169,2.81518l-14.603545,15.675615" />

    <text text-anchor="start" font-size="16" id="svg_5" y="17.595315" x="32.392475">发表！</text>
</svg>



<svg xmlns="http://www.w3.org/2000/svg" xmlns:xlink="http://www.w3.org/1999/xlink" viewBox="-25 -25 300 300">
    <title></title>
    <defs>
        <style>
          .test:hover { fill: red; }
        </style>
    </defs>
    <circle class="test" cx="50" cy="60" r="20" />
  
    <path d="M100 100a200 100 0 0 0 -100 100a200 100 0 0 0 100 -100z"/>
</svg>