<svg width="30" height="30" xmlns="http://www.w3.org/2000/svg">
 <!-- Created with Method Draw - http://github.com/duopixel/Method-Draw/ -->
 <g>
  <title>background</title>
  <rect fill="#fff" id="canvas_background" height="32" width="32" y="-1" x="-1"/>
  <g display="none" overflow="visible" y="0" x="0" height="100%" width="100%" id="canvasGrid">
   <rect fill="url(#gridpattern)" stroke-width="0" y="0" x="0" height="100%" width="100%"/>
  </g>
 </g>
 <g>
  <title>Layer 1</title>
  <path stroke="#000" id="svg_7" d="m14.974721,5.733442c1.022922,0.001223 2.000139,0.168642 2.925608,0.448334l-0.732442,1.197433l5.199153,0l-1.300121,-2.128357l-1.299128,-2.12772l-0.683872,1.121172c-1.281684,-0.442935 -2.663388,-0.690826 -4.108267,-0.690826c-6.650671,0 -12.041248,5.095795 -12.041248,11.382356c0,2.60913 0.938796,5.006349 2.501158,6.927009l1.830934,-1.328829c-1.263595,-1.552158 -2.023338,-3.489034 -2.02746,-5.597552c0.009203,-5.082602 4.35939,-9.195228 9.735684,-9.203021l0.000001,0zm9.541359,2.277784l-1.83093,1.329465c1.263277,1.551567 2.023024,3.487223 2.0265,5.596367c-0.009204,5.08256 -4.35939,9.194598 -9.735996,9.202973c-0.952766,-0.001164 -1.86427,-0.147605 -2.733225,-0.392507l0.689252,-1.126606l-5.19913,0l1.299159,2.127179l1.300097,2.130113l0.724823,-1.188995c1.229295,0.40452 2.544945,0.630199 3.919024,0.630786c6.65163,-0.001172 12.041283,-5.096971 12.042846,-11.383537c-0.001562,-2.609124 -0.941026,-5.005758 -2.502419,-6.925237l0,-0.000001z" fill-opacity="null" stroke-opacity="null" stroke-width="1.5" fill="none"/>
 </g>
</svg>